<?xml version="1.0"?>
<svg xmlns="http://www.w3.org/2000/svg" id="Layer_2" data-name="Layer 2" viewBox="0 0 486.38 507.55" width="486.38" height="507.55" x="0" y="0"><defs><style>.cls-1{fill:#575756;}.cls-2,.cls-3{fill:#fff;}.cls-10,.cls-2{stroke:#e94366;}.cls-10,.cls-11,.cls-2,.cls-3,.cls-7,.cls-8,.cls-9{stroke-miterlimit:10;}.cls-2{stroke-width:6px;}.cls-3{stroke:#55b1cc;stroke-width:10px;}.cls-4{fill:#1d1d1b;}.cls-11,.cls-5{fill:#c06;}.cls-10,.cls-6{fill:#f66;}.cls-7,.cls-8{fill:#fc0;stroke:#ffb300;}.cls-7{stroke-width:20px;}.cls-10,.cls-8{stroke-width:16px;}.cls-9{fill:#588da8;stroke:#4279a8;stroke-width:8px;}.cls-11{stroke:#ac0066;stroke-width:18px;}</style></defs><title>background mobile</title><rect class="cls-1" x="812.97" y="545.17" width="149.12" height="0.5" transform="matrix(0.87, -0.49, 0.49, 0.87, -841.48, 413.72)"/><rect class="cls-1" x="268.68" y="418.26" width="148.24" height="0.5"/><rect class="cls-1" x="962.1" y="287.95" width="127.17" height="0.5" transform="translate(-86.83 1174.99) rotate(-82.22)"/><rect class="cls-1" x="1010.4" y="117.01" width="0.5" height="113.36" transform="translate(-668.41 347.02) rotate(-24.66)"/><rect class="cls-1" x="1034.2" y="221.71" width="106.66" height="0.5" transform="translate(-699.64 -23.45) rotate(-3.51)"/><rect class="cls-1" x="922.71" y="339.84" width="0.99" height="132.8" transform="translate(-772.95 349.93) rotate(-25.69)"/><rect class="cls-1" x="863.51" y="276.55" width="186.53" height="0.99" transform="translate(-680.6 488.37) rotate(-33.78)"/><rect class="cls-1" x="984.15" y="252.83" width="0.99" height="222.07" transform="matrix(0.31, -0.95, 0.95, 0.31, -358.83, 1093.43)"/><rect class="cls-1" x="897.09" y="190.12" width="0.99" height="102.05" transform="translate(-701.13 -35.26) rotate(-3.5)"/><rect class="cls-1" x="832.32" y="112.64" width="0.99" height="124.87" transform="matrix(0.21, -0.98, 0.98, 0.21, -200.48, 862.51)"/><rect class="cls-1" x="1084.9" y="377.55" width="89.3" height="0.99" transform="translate(-734.27 478.62) rotate(-27.73)"/><rect class="cls-1" x="1120.27" y="379.25" width="0.99" height="67.85" transform="translate(-415.95 1163.39) rotate(-64.97)"/><rect class="cls-1" x="748.86" y="74.91" width="0.99" height="137.62" transform="translate(-533.04 531.83) rotate(-49.7)"/><circle class="cls-2" cx="1140.76" cy="218.72" r="10.75" transform="translate(-508.64 780.27) rotate(-45)"/><circle class="cls-3" cx="894.47" cy="190.22" r="17.29" transform="translate(14.6 993.93) rotate(-89.9)"/><circle class="cls-4" cx="480.97" cy="266.85" r="5.4"/><circle class="cls-4" cx="463.41" cy="337.11" r="5.4"/><circle class="cls-4" cx="416.91" cy="418.51" r="11.48"/><circle class="cls-5" cx="134.41" cy="491.47" r="6.08"/><circle class="cls-5" cx="298.91" cy="31.75" r="6.08"/><circle class="cls-6" cx="328.97" cy="260.77" r="6.08"/><circle class="cls-4" cx="8.78" cy="8.78" r="8.78"/><circle class="cls-7" cx="264.45" cy="418.51" r="79.04"/><circle class="cls-8" cx="791.43" cy="164.74" r="28.37" transform="translate(-238.83 806.72) rotate(-76.72)"/><circle class="cls-8" cx="791.43" cy="164.74" r="28.37" transform="translate(-238.83 806.72) rotate(-76.72)"/><circle class="cls-9" cx="401.93" cy="308.39" r="23.31"/><circle class="cls-10" cx="1034.3" cy="225.2" r="47.29" transform="translate(-41.77 1119.64) rotate(-80.78)"/><circle class="cls-11" cx="202.03" cy="238.47" r="45.87"/><path class="cls-4" d="M978.22,492.27c-2,0-3.41,11.51-6.26,18.47s-6.09,12.18-10.86,12.18-5.49-4.87-5.49-4.87h-5.32s-.71,4.87-5.48,4.87-8-5.23-10.87-12.18-4.21-18.47-6.25-18.47-1.93,2.6-1.93,2.6v18.56c0,4.11,4.63,10.61,10.46,16.7s7.86,8.56,16.42,8.68h.62c8.57-.12,10.72-2.73,16.42-8.68s10.46-12.59,10.46-16.7V494.87S980.25,492.27,978.22,492.27Z" transform="translate(-688.1 -90.43)"/><path class="cls-4" d="M996.7,531.54c-5.58-2.54-20.2-6.07-20.2-6.07l-3.65,4.14,6.83,2.35c-2.49,5.12-11.92,15-27.13,15s-24.63-9.9-27.13-15l6.84-2.35-3.66-4.14S914,529,908.4,531.54s-6.25,11.22-4.88,24.63a90,90,0,0,0,2.63,13.21,79.07,79.07,0,0,0,92.81,0,91.26,91.26,0,0,0,2.62-13.21C1003,542.76,1002.29,534.08,996.7,531.54Z" transform="translate(-688.1 -90.43)"/><path class="cls-4" d="M985.31,484.57c.07-4.78-.68-16.53-8.67-25.34a33,33,0,0,0-47.92,0c-8,8.81-8.74,20.56-8.67,25.34-2.2,1.2-4.89,4.19-4.89,11.63,0,11.15,9.84,17.09,10.25,17.34a2.72,2.72,0,0,0,1.36.38,2.69,2.69,0,0,0,1.38-5c-.07,0-7.62-4.67-7.62-12.72,0-5.31,1.64-6.86,2.37-7.05a2.36,2.36,0,0,0,2-.76,2.57,2.57,0,0,0,.63-2.2c0-.14-1.23-14.08,7.24-23.39a27.68,27.68,0,0,1,39.9,0c8.47,9.31,7.25,23.25,7.24,23.39a2.57,2.57,0,0,0,.63,2.2,2.36,2.36,0,0,0,2,.76c.73.19,2.37,1.74,2.37,7.05,0,8.05-7.55,12.68-7.63,12.72a2.7,2.7,0,0,0-.92,3.68,2.65,2.65,0,0,0,3.66.94c.42-.25,10.26-6.19,10.26-17.34C990.2,488.76,987.51,485.77,985.31,484.57Z" transform="translate(-688.1 -90.43)"/><path class="cls-4" d="M914.42,472.92A73.9,73.9,0,0,0,925,455.17c1.93-4,18.14-12.41,31-11.17s20.92,6.6,31.48,5.89c.1,0-2.64,2.64-9.55,4.17-1,.3,2.95,3.86,4.37,7.82s7.31,16,9.44,17-10.95,3.14-15-1.93c.3,0,3.42,5.68,8.56,7.66,0,0-18.72,2.19-32.36-18.43-.07-.51-6.37,10.16-17.74,13.3-.1.21,2.33-3.14,2.64-9.34a24,24,0,0,1-13.91,7.11c3.3-3.35,4.06-5.79,4.06-9.55C928,467.66,919.39,474.83,914.42,472.92Z" transform="translate(-688.1 -90.43)"/><path class="cls-4" d="M915.4,341.78c-3.19-1.45-11.54-3.47-11.54-3.47l-2.09,2.36,3.91,1.35c-1.43,2.92-6.81,8.58-15.49,8.58s-14.07-5.66-15.5-8.58l3.91-1.35-2.09-2.36s-8.35,2-11.54,3.47-3.56,6.41-2.78,14.06a50.4,50.4,0,0,0,1.5,7.54,45.11,45.11,0,0,0,53,0,50.4,50.4,0,0,0,1.5-7.54C919,348.19,918.59,343.23,915.4,341.78Z" transform="translate(-688.1 -90.43)"/><path class="cls-4" d="M894.84,330a15.49,15.49,0,0,0-3.41-.64h-.75v1.51h.75a15,15,0,0,1,4.73,1.23v3.74c0,1.68-.63,4.52-3,4.52a1.8,1.8,0,0,1-1.33-.42c-.48-.48-.45-2.15-.45-2.15a7.54,7.54,0,0,1,.44-2.15,11.22,11.22,0,0,1,.88-1.37h-5.05a10.09,10.09,0,0,1,.88,1.37,7.54,7.54,0,0,1,.44,2.15s0,1.67-.45,2.15a1.8,1.8,0,0,1-1.33.42c-2.36,0-3-2.84-3-4.52v-3.74a15,15,0,0,1,4.73-1.23h.75v-1.51h-.75a15.59,15.59,0,0,0-3.41.64c-2.35.67-2.83,1.23-2.83,1.87v9.51s3.5,2.89,5.36,2.7a4.13,4.13,0,0,0,2.13-.64,4,4,0,0,0,2.12.64c1.86.19,5.36-2.7,5.36-2.7v-9.51C897.67,331.18,897.19,330.62,894.84,330Z" transform="translate(-688.1 -90.43)"/><path class="cls-4" d="M869.44,313.06s11.49.87,18-3.79a7,7,0,0,1-4,4.66c-.06,0,7.24,1.41,10.81-4,.83-1.41,3.24,1.58.41,3.93a5.56,5.56,0,0,0,3.41-2.83s2.27,3.95,12.49,5a16.24,16.24,0,0,1-2.27-6.7,7.79,7.79,0,0,0,.49-6.17c-.05-.2-.29,1.73-1.35,2.36A12.6,12.6,0,0,0,905.3,298s.58,1.8-1,2.38c-.06-.06-.74-3.28-2.28-4.27-.29,0-1.22,2.53-2.31,1.47s-2.83-4.56-5.6-5.36c0,0,1.13,2,.23,3.14a16.62,16.62,0,0,0-10.39,0s1.16.13,1.55.71c.16,0-5.21.36-7.67,2.91s-1.59,2.85-2.6,3.91A25.67,25.67,0,0,0,869.44,313.06Z" transform="translate(-688.1 -90.43)"/><path class="cls-4" d="M908.32,314.59a26.81,26.81,0,0,0-2.29-9.15c-2.07-4.49-6.42-9.83-15.4-10.1h-.89c-9,.27-13.33,5.61-15.4,10.1a27,27,0,0,0-2.29,9.15c-1,.69-2.61,2.46-2.61,6.91,0,5.13,3.94,8.64,5.36,9.74.45,3.07,3.86,6.85,5.75,8.94l.11.13c1.82,2,4.29,4.75,9.27,4.89h.51c5-.14,7.45-2.88,9.27-4.89l.12-.13c1.89-2.09,5.29-5.87,5.74-8.94,1.42-1.1,5.36-4.61,5.36-9.74C910.93,317.05,909.37,315.28,908.32,314.59Zm-3.14,13.74-.91-11.1s-1.12,13.68-1.12,13.72c-.34,2.28-3.67,6-5.14,7.59l-.12.13c-1.71,1.9-3.64,4-7.7,4.09s-6-2.19-7.71-4.09l-.12-.13c-1.46-1.61-4.75-5.26-5.13-7.54,0-.06-1.12-13.77-1.12-13.77l-.91,11.11c-1.4-1.36-3.32-3.79-3.32-6.84,0-4,1.46-4.86,1.67-4.95a1.1,1.1,0,0,0,.91-1.18,24.48,24.48,0,0,1,2.13-9c2.63-5.64,7.2-8.54,13.6-8.62,6.39.08,11,3,13.59,8.62a24.48,24.48,0,0,1,2.13,9,1.1,1.1,0,0,0,.91,1.18c.22.09,1.67.91,1.67,4.95A9.92,9.92,0,0,1,905.18,328.33Z" transform="translate(-688.1 -90.43)"/><path class="cls-4" d="M805.06,174.21h0c-1.73-.79-7.37-3.05-7.37-3.05l-1.13,1.27,2.26,1.84a8.15,8.15,0,0,1-14.78,0l2.26-1.84-1.13-1.27s-5.64,2.26-7.37,3.05h0c-1.73.78-1.93,3.46-1.51,7.6a29.34,29.34,0,0,0,.81,4.08,24.35,24.35,0,0,0,14.33,4.65h0a24.35,24.35,0,0,0,14.33-4.65,29.34,29.34,0,0,0,.81-4.08C807,177.67,806.79,175,805.06,174.21Z" transform="translate(-688.1 -90.43)"/><path class="cls-4" d="M791.26,173c-1.78-.15-3.85-1.4-5.8-4a25,25,0,0,1-4-8.07c-.56-2.06-2.12-9.13,1.34-13.74,1.8-2.4,4.64-3.65,8.44-3.72h.33c3.81.07,6.65,1.32,8.45,3.72,3.45,4.61,1.9,11.68,1.34,13.74a25,25,0,0,1-4,8.07c-2,2.61-4,3.86-5.79,4Zm.08-1.61h.18c2.82-.27,7-5.36,8.53-10.84,1.07-3.92,1.34-9.28-1.11-12.54-1.53-2-4-3.11-7.36-3.17h-.3c-3.35.06-5.83,1.13-7.36,3.17-2.45,3.26-2.18,8.62-1.11,12.54C784.3,166.06,788.51,171.15,791.34,171.42Z" transform="translate(-688.1 -90.43)"/><path class="cls-4" d="M782.47,162.89a.65.65,0,0,1-.36-.1c-3.16-1.94-4-5.68-3.52-7.22a1.21,1.21,0,0,1,1.15-1c1.65,0,2,2.61,2,3.13a.69.69,0,0,1-1.37.14,4.32,4.32,0,0,0-.53-1.78,3.81,3.81,0,0,0,.06,1.39,6.48,6.48,0,0,0,2.88,4.21.69.69,0,0,1,.22.95A.67.67,0,0,1,782.47,162.89Z" transform="translate(-688.1 -90.43)"/><path class="cls-4" d="M800.39,162.89a.68.68,0,0,0,.36-.1c3.16-1.94,4-5.68,3.52-7.22a1.21,1.21,0,0,0-1.16-1c-1.65,0-2,2.61-2,3.13a.68.68,0,0,0,.62.75.69.69,0,0,0,.75-.61A4.32,4.32,0,0,1,803,156a3.81,3.81,0,0,1-.06,1.39,6.57,6.57,0,0,1-2.88,4.21.69.69,0,0,0-.22.95A.67.67,0,0,0,800.39,162.89Z" transform="translate(-688.1 -90.43)"/><path class="cls-4" d="M783.15,164.61s.37-15.46,6.93-15.46a12.27,12.27,0,0,0,3.41,6.06,3.91,3.91,0,0,1-.55-2.12c0,.07,6.85,4.28,6.76,12.17.06-.11,8.16-3.86,4.18-16.11-3.49-10.78-12.69-6.48-12.69-6.48s-8.31-1-11.59,6.32S783.15,164.61,783.15,164.61Z" transform="translate(-688.1 -90.43)"/><path class="cls-4" d="M1058.3,242.43h0c-3-1.35-12.64-5.23-12.64-5.23l-1.94,2.19,3.88,3.14a14,14,0,0,1-25.37,0l3.88-3.14-1.93-2.19s-9.69,3.88-12.65,5.23h0c-3,1.35-3.31,5.95-2.59,13a48.81,48.81,0,0,0,1.39,7,41.74,41.74,0,0,0,24.59,8h0a41.71,41.71,0,0,0,24.58-8,47.47,47.47,0,0,0,1.39-7C1061.61,248.38,1061.26,243.78,1058.3,242.43Z" transform="translate(-688.1 -90.43)"/><path class="cls-4" d="M1034.62,240.4c-3.06-.25-6.6-2.38-9.95-6.87a42.59,42.59,0,0,1-6.83-13.86c-1-3.53-3.64-15.66,2.29-23.56,3.09-4.12,8-6.27,14.49-6.38h.57c6.52.11,11.4,2.26,14.5,6.38,5.92,7.9,3.25,20,2.29,23.56a43,43,0,0,1-6.83,13.86c-3.35,4.49-6.87,6.62-9.93,6.87Zm.13-2.76h.31c4.85-.46,12.09-9.19,14.64-18.59,1.83-6.73,2.3-15.93-1.9-21.52-2.64-3.51-6.89-5.34-12.64-5.44h-.51c-5.75.1-10,1.93-12.63,5.44-4.2,5.59-3.74,14.79-1.91,21.52C1022.67,228.45,1029.9,237.18,1034.75,237.64Z" transform="translate(-688.1 -90.43)"/><path class="cls-4" d="M1058.19,210.72l.3-.29s.84-14.65-10.54-21.08-24.16-7-30.72,6.66c.06-.1-10.48,1.74-8.34,14.33.1.06-6,12.58,5.59,18.4a11.05,11.05,0,0,0,5.53,10.14l7.78-3.28q-.19-.32-.39-.66c-2.45-4.11-7-11.26-7.56-12.91a31.21,31.21,0,0,1-1.07-4.9s-.88-8.13,1.94-12.62c0,.07,5.92,7.53,12.21-1.23.14.06,4.59,1.5,6.7-1.31.2.23,3.25,5.36,9.49,4.62a31.5,31.5,0,0,1,1.35,11.41l-1.35,7.33s-3.19,6.8-7,10.34l6,2.48c.15-.17.31-.33.46-.51a8.8,8.8,0,0,0,6.68-10.3l-.23-.05C1061.42,221.7,1059.32,213.75,1058.19,210.72Z" transform="translate(-688.1 -90.43)"/><path class="cls-4" d="M1100.38,408.61h0c-1.34-.61-5.72-2.37-5.72-2.37l-.88,1,1.76,1.43a6.33,6.33,0,0,1-11.47,0l1.75-1.43-.87-1s-4.38,1.76-5.73,2.37h0c-1.34.61-1.49,2.69-1.17,5.9a22.15,22.15,0,0,0,.63,3.17,18.87,18.87,0,0,0,11.12,3.61h0a18.83,18.83,0,0,0,11.12-3.61,22.15,22.15,0,0,0,.63-3.17C1101.88,411.3,1101.72,409.22,1100.38,408.61Z" transform="translate(-688.1 -90.43)"/><path class="cls-4" d="M1089.67,407.69c-1.38-.11-3-1.08-4.5-3.1a19.41,19.41,0,0,1-3.09-6.27c-.43-1.6-1.64-7.09,1-10.66,1.4-1.86,3.6-2.83,6.55-2.89h.26c3,.06,5.16,1,6.56,2.89,2.68,3.57,1.47,9.06,1,10.66a19.39,19.39,0,0,1-3.08,6.27c-1.52,2-3.11,3-4.49,3.1Zm.06-1.24h.14c2.2-.21,5.47-4.16,6.62-8.41.83-3.05,1-7.21-.86-9.74-1.19-1.58-3.11-2.41-5.71-2.46h-.23c-2.6.05-4.53.88-5.72,2.46-1.9,2.53-1.69,6.69-.86,9.74C1084.27,402.29,1087.54,406.24,1089.73,406.45Z" transform="translate(-688.1 -90.43)"/><path class="cls-4" d="M1082.85,399.83a.54.54,0,0,1-.28-.08,5.76,5.76,0,0,1-2.73-5.61.93.93,0,0,1,.89-.8c1.28,0,1.55,2,1.59,2.43a.53.53,0,1,1-1.06.1,3.31,3.31,0,0,0-.41-1.37,2.86,2.86,0,0,0,0,1.07,5.08,5.08,0,0,0,2.24,3.27.53.53,0,0,1,.17.74A.53.53,0,0,1,1082.85,399.83Z" transform="translate(-688.1 -90.43)"/><path class="cls-4" d="M1096.76,399.83a.6.6,0,0,0,.28-.08,5.76,5.76,0,0,0,2.73-5.61.94.94,0,0,0-.9-.8c-1.28,0-1.54,2-1.58,2.43a.53.53,0,1,0,1.06.1,3.31,3.31,0,0,1,.41-1.37,2.86,2.86,0,0,1,0,1.07,5.08,5.08,0,0,1-2.24,3.27.55.55,0,0,0-.18.74A.56.56,0,0,0,1096.76,399.83Z" transform="translate(-688.1 -90.43)"/><path class="cls-4" d="M1082.85,397.32s-2.57-2.85-2.57-8.39c0,.09-4.35-1.52-1.3-5.83,0,0-.75,3.31,2.13,3,.05,0-.45-4,2.73-4.32a3.93,3.93,0,0,1,3.7-1.95c2.84,0,2.65,2.07,2.65,2.07s5.84-.34,8.47,4.47,3.73,11.9-1.9,17.62c0-.05,2.22-3.77,1.28-10.3a9.45,9.45,0,0,1-3.74-2.19c0-.11-6.26,1.55-9.78-2.43C1084.52,389.21,1082.49,390.45,1082.85,397.32Z" transform="translate(-688.1 -90.43)"/></svg>
